<svg xmlns="http://www.w3.org/2000/svg"
     fill="none"
     height="17"
     viewBox="0 0 17 17"
     width="17">
  <path d="m8.74219 4.70654c2.21481 0 4.04301 1.82813 4.04301 4.04297 0 2.24999-1.8282 4.04299-4.04301 4.04299-2.25 0-4.04297-1.793-4.04297-4.04299 0-2.21484 1.79297-4.04297 4.04297-4.04297zm0 6.67966c1.44141 0 2.60161-1.1601 2.60161-2.63669 0-1.4414-1.1602-2.60156-2.60161-2.60156-1.47657 0-2.63672 1.16016-2.63672 2.60156 0 1.47659 1.19531 2.63669 2.63672 2.63669zm5.13281-6.82028c0 .52734-.4219.94922-.9492.94922-.5274 0-.9492-.42188-.9492-.94922 0-.52735.4218-.94922.9492-.94922.5273 0 .9492.42187.9492.94922zm2.6719.94922c.0703 1.30078.0703 5.20316 0 6.50386-.0703 1.2657-.3516 2.3555-1.2657 3.3047-.914.9141-2.039 1.1953-3.3046 1.2657-1.3008.0703-5.20316.0703-6.50394 0-1.26563-.0704-2.35547-.3516-3.30469-1.2657-.91406-.9492-1.195314-2.039-1.265626-3.3047-.070313-1.3007-.070313-5.20308 0-6.50386.070312-1.26563.351566-2.39063 1.265626-3.30469.94922-.91406 2.03906-1.19531 3.30469-1.265626 1.30078-.070312 5.20314-.070312 6.50394 0 1.2656.070316 2.3906.351566 3.3046 1.265626.9141.91406 1.1954 2.03906 1.2657 3.30469zm-1.6875 7.87496c.4218-1.0195.3164-3.48043.3164-4.64059 0-1.125.1054-3.58594-.3164-4.64062-.2813-.66797-.8086-1.23047-1.4766-1.47657-1.0547-.42187-3.51561-.3164-4.64061-.3164-1.16016 0-3.6211-.10547-4.64063.3164-.70312.28125-1.23047.8086-1.51172 1.47657-.42187 1.05468-.3164 3.51562-.3164 4.64062 0 1.16016-.10547 3.62109.3164 4.64059.28125.7032.8086 1.2305 1.51172 1.5118 1.01953.4218 3.48047.3164 4.64063.3164 1.125 0 3.58591.1054 4.64061-.3164.668-.2813 1.2305-.8086 1.4766-1.5118z"
        fill="#f2f2e8"/>
</svg>