<svg xmlns="http://www.w3.org/2000/svg"
     width="18"
     height="22"
     viewBox="0 0 18 22"
     fill="none">
  <path d="M14.8975 11.5886C14.8736 8.95545 17.0559 7.67203 17.1567 7.61105C16.7238 6.9932 16.1528 6.48482 15.489 6.12624C14.8253 5.76767 14.087 5.56879 13.333 5.54541C11.7234 5.3757 10.151 6.50794 9.35546 6.50794C8.55996 6.50794 7.25799 5.5613 5.90828 5.59047C5.02926 5.61864 4.17254 5.87405 3.42157 6.33179C2.67061 6.78952 2.05101 7.43397 1.62318 8.20236C-0.232996 11.4109 1.15383 16.1229 2.9278 18.7163C3.81611 19.9864 4.85292 21.4024 6.21058 21.3521C7.56824 21.3017 8.03493 20.5062 9.63919 20.5062C11.2435 20.5062 11.6916 21.3521 13.0864 21.3229C14.4812 21.2937 15.4119 20.0448 16.2684 18.764C16.9066 17.8599 17.3971 16.8601 17.7215 15.8021C16.8928 15.4524 16.1854 14.8662 15.6879 14.1168C15.1903 13.3675 14.9246 12.4881 14.924 11.5886"
        fill="#F2F2E8"/>
  <path d="M12.2801 3.84062C13.0546 2.90719 13.4351 1.70876 13.3408 0.499512C12.3066 0.54459 11.0153 1.21281 10.2701 2.09052C9.60988 2.8595 9.02122 4.12436 9.17236 5.30966C10.3365 5.39716 11.527 4.72363 12.2748 3.84327"
        fill="#F2F2E8"/>
</svg>