<svg xmlns="http://www.w3.org/2000/svg"
     fill="none"
     height="17"
     viewBox="0 0 17 17"
     width="17">
  <path d="m15.4922.874512c.5976 0 1.125.527348 1.125 1.160158v13.46483c0 .6328-.5274 1.125-1.125 1.125h-13.53517c-.59765 0-1.089842-.4922-1.089842-1.125v-13.46483c0-.63281.492192-1.160158 1.089842-1.160158zm-9.87892 13.499988v-7.48827h-2.32031v7.48827zm-1.16016-8.54296c.73829 0 1.33594-.59765 1.33594-1.33593 0-.73829-.59765-1.3711-1.33594-1.3711-.77343 0-1.37109.63281-1.37109 1.3711 0 .73828.59766 1.33593 1.37109 1.33593zm9.91408 8.54296v-4.1133c0-2.00388-.457-3.58591-2.8125-3.58591-1.125 0-1.89845.63282-2.21486 1.23047h-.03515v-1.01953h-2.21485v7.48827h2.32032v-3.6914c0-.98437.17578-1.93359 1.40624-1.93359 1.1953 0 1.1953 1.125 1.1953 1.96879v3.6562z"
        fill="#f2f2e8"/>
</svg>