<svg xmlns="http://www.w3.org/2000/svg"
     fill="none"
     height="22"
     viewBox="0 0 20 22"
     width="20">
  <path
    d="m18.5221 9.82016-4.0925-2.37754-11.50575-6.681947c-.28205-.174554-.60327-.264748-.9296-.261052-.08151.001451-.16271.010803-.24261.02796-.01754 0-.02047.031078-.03801.037293-.28065.080768-.52903.256278-.70775.500096-.178724.24382-.278121.54276-.283224.85183v18.0257c.003826.3377.121153.6627.330794.9164.20963.2536.49775.4192.81219.4667.02631 0 .04967.0279.07598.0279h.05263c.34295.0011.67961-.0978.97342-.2859l11.40053-6.6198 4.1627-2.4211c.2137-.0837.3982-.2351.5285-.4338.1303-.1986.2001-.435.2001-.6772s-.0698-.4786-.2001-.6773c-.1303-.1986-.3148-.35005-.5285-.4338zm-6.5626-2.75669 1.5405.89507-2.2362 2.37756-7.62963-8.11163zm-10.11726 13.29243c-.07041-.0384-.13028-.0955-.17382-.1658-.04354-.0702-.06925-.1512-.07465-.2351v-18.02576c.0037-.07028.02121-.13893.05142-.20157.03021-.06263.07245-.11786.12397-.16207l8.87784 9.4418zm2.04625-.8578 7.38701-7.8598.1871.1958 1.979 2.104zm14.22441-8.267-3.8791 2.2532-2.3386-2.4863.2134-.2268 2.2041-2.34337 3.8002 2.21277c.1871.1088.2718.23.2718.3108s-.0935.1709-.2777.2797z"
    fill="#f2f2e8"/>
</svg>