<svg width="30" height="24" viewBox="0 0 30 24" fill="none" xmlns="http://www.w3.org/2000/svg">
<path d="M26.3066 5.90306C26.3066 6.18963 26.3066 6.41888 26.3066 6.70544C26.3066 14.6719 20.2888 23.7847 9.2274 23.7847C5.78862 23.7847 2.63641 22.8104 2.09808e-05 21.091C0.458524 21.1483 0.917027 21.2056 1.43284 21.2056C4.24117 21.2056 6.82025 20.2313 8.88352 18.6265C6.24713 18.5692 4.01192 16.8498 3.26686 14.4427C3.66805 14.5 4.01192 14.5573 4.41311 14.5573C4.92893 14.5573 5.50206 14.4427 5.96056 14.3281C3.20954 13.7549 1.14628 11.3478 1.14628 8.42483V8.36752C1.94866 8.82602 2.92298 9.05527 3.8973 9.11258C2.23522 8.02364 1.20359 6.18963 1.20359 4.12636C1.20359 2.98011 1.49016 1.94847 2.00597 1.08878C4.98624 4.69949 9.45665 7.10663 14.4429 7.3932C14.3282 6.93469 14.2709 6.47619 14.2709 6.01769C14.2709 2.69354 16.9646 -0.00016471 20.2888 -0.00016471C22.0082 -0.00016471 23.5556 0.68759 24.7019 1.89116C26.0201 1.6046 27.3383 1.08878 28.4845 0.401025C28.026 1.83385 27.109 2.98011 25.8481 3.72517C27.0517 3.61055 28.2553 3.26667 29.2869 2.80817C28.4845 4.01174 27.4529 5.04337 26.3066 5.90306Z" fill="#FBFDFC"/>
</svg>
